<?xml version="1.0"?>
<svg width="26.071" height="32.634" xmlns="http://www.w3.org/2000/svg" xmlns:svg="http://www.w3.org/2000/svg">
 <g class="layer">
  <title>Layer 1</title>
  <g id="upload">
   <path d="m13.07,32.76a0.5,0.5 0 0 1 -0.5,-0.5l0,-31.63a0.5,0.5 0 0 1 1,0l0,31.63a0.5,0.5 0 0 1 -0.5,0.5z" data-name="Path 3" fill="#000000" id="Path_3"/>
   <path d="m25.6,13.67a0.5,0.5 0 0 1 -0.35,-0.15l-12.18,-12.18l-12.19,12.18a0.5,0.5 0 0 1 -0.7,-0.71l12.54,-12.53a0.5,0.5 0 0 1 0.35,-0.15l0,0a0.5,0.5 0 0 1 0.35,0.15l12.54,12.53a0.5,0.5 0 0 1 -0.36,0.86z" data-name="Path 4" fill="#000000" id="Path_4"/>
  </g>
 </g>
</svg>