<?xml version="1.0" standalone="no"?>
<!DOCTYPE svg PUBLIC "-//W3C//DTD SVG 20010904//EN"
 "http://www.w3.org/TR/2001/REC-SVG-20010904/DTD/svg10.dtd">
<svg version="1.0" xmlns="http://www.w3.org/2000/svg"
 width="802.000000pt" height="801.000000pt" viewBox="0 0 802.000000 801.000000"
 preserveAspectRatio="xMidYMid meet">
<metadata>
Created by potrace 1.16, written by Peter Selinger 2001-2019
</metadata>
<g transform="translate(0.000000,801.000000) scale(0.100000,-0.100000)"
fill="#000000" stroke="none">
<path d="M3730 7534 c-306 -36 -453 -62 -664 -120 -371 -100 -840 -330 -1147
-561 -252 -190 -523 -456 -686 -674 -186 -249 -267 -381 -392 -640 -159 -331
-259 -675 -317 -1089 -25 -176 -25 -652 -1 -830 66 -468 191 -867 390 -1235
184 -341 370 -588 653 -866 558 -546 1295 -892 2074 -975 186 -19 637 -14 815
10 254 34 543 105 764 188 171 63 448 196 604 290 468 280 895 704 1176 1168
269 443 421 879 497 1425 23 163 26 613 6 775 -118 930 -520 1700 -1192 2282
-248 215 -449 347 -755 498 -368 181 -686 278 -1100 336 -114 16 -633 29 -725
18z m485 -114 c496 -34 908 -148 1350 -374 597 -305 1083 -776 1419 -1373 159
-282 288 -635 355 -968 52 -259 65 -385 65 -665 2 -452 -63 -815 -216 -1215
-307 -807 -895 -1456 -1663 -1836 -366 -181 -678 -277 -1095 -335 -177 -26
-662 -26 -839 -1 -427 61 -739 157 -1111 343 -432 216 -822 531 -1120 904
-250 314 -429 638 -560 1016 -216 625 -247 1287 -89 1929 234 950 878 1763
1744 2202 363 184 686 288 1063 343 254 37 460 46 697 30z"/>
<path d="M4480 6255 c-27 -32 -70 -45 -207 -60 -222 -25 -270 -47 -307 -137
-22 -52 -20 -185 4 -303 11 -53 20 -106 20 -116 0 -60 -91 32 -110 111 -15 61
-8 186 13 268 8 29 12 51 8 50 -21 -10 -271 -279 -271 -291 0 -9 -23 -40 -51
-69 -28 -29 -78 -93 -110 -141 -95 -141 -82 -186 97 -355 116 -109 142 -151
87 -137 -47 11 -111 54 -168 111 -62 62 -95 119 -95 166 -1 55 -17 12 -45
-116 -28 -128 -31 -187 -14 -285 21 -122 95 -229 184 -267 53 -22 141 -17 208
10 32 13 54 19 49 13 -94 -123 -662 -889 -662 -892 0 -8 84 -5 96 3 6 4 152
204 325 446 l314 439 7 -61 c22 -195 162 -287 395 -261 183 20 273 71 363 203
26 40 66 85 89 100 56 39 105 95 135 153 20 41 76 206 76 226 0 4 -18 -11 -41
-34 -23 -23 -64 -51 -93 -64 -66 -30 -194 -49 -271 -40 -71 8 -149 39 -143 57
5 15 30 21 193 47 212 35 329 82 360 148 20 42 20 183 -1 298 -14 74 -19 87
-28 71 -49 -84 -187 -210 -279 -258 -45 -22 -160 -37 -170 -21 -13 20 25 52
81 68 134 39 278 118 321 176 13 17 25 48 28 68 5 35 -16 180 -37 254 l-11 38
-52 -68 c-95 -125 -175 -193 -229 -193 -41 0 -35 23 19 67 126 103 185 157
195 178 15 34 -12 79 -101 165 -90 87 -130 143 -146 206 -10 40 -13 44 -25 29z
m-229 -146 c-6 -18 -11 -74 -11 -126 0 -77 -3 -95 -16 -100 -26 -10 -35 17
-31 89 3 47 13 85 32 123 29 59 45 68 26 14z m308 -123 c23 -27 -87 -144 -123
-130 -27 10 -18 35 27 75 23 21 49 45 57 53 18 20 24 20 39 2z m-796 -540 c41
-66 48 -106 19 -106 -47 0 -81 65 -122 230 -6 25 -14 54 -16 65 -3 11 14 -14
39 -55 24 -41 60 -102 80 -134z m647 115 c0 -5 -13 -19 -30 -31 -23 -17 -34
-19 -50 -10 -24 13 -24 14 -4 34 17 17 84 22 84 7z m-351 -65 c16 -19 10 -51
-9 -51 -16 0 -52 63 -44 77 6 10 35 -5 53 -26z m-131 -280 c21 -18 31 -66 14
-66 -24 0 -72 63 -72 93 0 21 6 18 58 -27z m350 38 c27 -8 29 -30 3 -44 -49
-26 -119 1 -91 35 13 16 49 19 88 9z m-125 -235 c42 -11 47 -23 17 -39 -15 -8
-30 -8 -55 0 -38 12 -42 19 -23 38 14 14 14 14 61 1z m-539 -121 c36 -16 22
-28 -33 -28 -47 0 -91 26 -74 44 10 9 73 0 107 -16z m766 -194 c51 -19 115
-38 141 -41 48 -6 49 -7 33 -24 -32 -36 -180 -16 -268 35 -45 26 -58 49 -33
59 23 10 35 7 127 -29z m-256 -130 c61 -71 64 -99 8 -70 -47 24 -101 104 -86
127 10 17 22 9 78 -57z"/>
<path d="M3115 3291 c-76 -35 -80 -52 -80 -326 0 -220 2 -243 20 -280 27 -53
70 -76 140 -76 70 0 122 25 147 71 16 31 18 61 18 275 0 269 -4 289 -69 332
-43 29 -119 30 -176 4z m116 -91 c18 -10 19 -23 19 -233 0 -246 -3 -261 -55
-255 -51 5 -56 29 -53 259 3 217 8 239 50 239 11 0 28 -5 39 -10z"/>
<path d="M5584 3290 c-70 -35 -74 -55 -74 -328 0 -211 3 -242 19 -279 24 -52
65 -74 136 -74 75 0 123 24 146 75 15 33 19 66 19 179 l0 137 -75 0 -75 0 0
-50 c0 -47 2 -50 25 -50 24 0 25 -2 25 -67 0 -83 -15 -117 -53 -121 -55 -7
-57 0 -57 240 0 132 4 227 10 239 13 23 62 26 81 3 7 -8 14 -40 17 -70 l4 -54
51 0 50 0 -5 74 c-5 83 -21 116 -71 146 -43 26 -120 26 -173 0z"/>
<path d="M1450 2955 l0 -345 55 0 55 0 0 105 c0 79 4 114 16 138 l17 31 52
-134 52 -135 56 -3 56 -3 -23 63 c-13 35 -47 121 -75 191 l-52 129 75 154 75
154 -57 0 -57 0 -65 -140 -65 -141 -3 141 -3 140 -54 0 -55 0 0 -345z"/>
<path d="M1950 3297 c0 -8 -100 -632 -106 -660 l-6 -28 54 3 53 3 8 63 9 63
66 -3 67 -3 8 -62 9 -63 54 0 c45 0 54 3 53 18 0 9 -24 163 -52 342 l-53 325
-82 3 c-45 2 -82 1 -82 -1z m100 -273 c11 -71 22 -144 25 -161 l6 -33 -51 0
c-33 0 -50 4 -50 13 0 24 44 316 47 313 2 -2 13 -61 23 -132z"/>
<path d="M2282 2958 l3 -343 58 -3 57 -3 0 141 0 140 34 0 c54 0 66 -26 66
-140 0 -138 1 -140 65 -140 l52 0 -4 103 c-6 153 -11 182 -39 212 l-25 27 28
30 c25 26 28 38 32 110 4 98 -10 148 -50 182 -29 25 -36 26 -155 26 l-124 0 2
-342z m208 223 c15 -28 12 -143 -4 -164 -8 -10 -30 -21 -50 -24 l-36 -6 0 107
0 106 40 0 c29 0 42 -5 50 -19z"/>
<path d="M2692 2958 l3 -343 143 -3 142 -3 0 51 0 50 -85 0 -85 0 0 295 0 295
-60 0 -60 0 2 -342z"/>
<path d="M3420 3290 c0 -6 23 -157 50 -335 28 -178 50 -329 50 -335 0 -6 33
-10 83 -10 l83 0 48 313 c27 171 50 327 53 345 l6 32 -51 0 c-60 0 -49 32 -92
-275 -17 -121 -34 -228 -38 -238 -5 -12 -19 57 -35 175 -16 106 -33 226 -39
266 l-10 72 -54 0 c-30 0 -54 -5 -54 -10z"/>
<path d="M3906 3273 c-6 -27 -106 -652 -106 -659 0 -2 22 -4 49 -4 55 0 55 0
67 83 l6 47 63 0 c71 0 68 2 80 -82 l6 -48 55 0 c30 0 54 4 54 9 0 12 -99 631
-105 659 -5 20 -11 22 -84 22 -79 0 -79 0 -85 -27z m107 -275 c13 -87 22 -160
19 -163 -12 -11 -92 -5 -92 8 -1 22 45 328 47 320 2 -4 13 -79 26 -165z"/>
<path d="M4480 3025 c0 -262 -1 -276 -20 -295 -11 -11 -33 -20 -50 -20 -29 0
-30 -1 -30 -51 l0 -52 60 6 c66 6 100 23 127 64 16 24 18 60 21 325 l3 298
-55 0 -56 0 0 -275z"/>
<path d="M4670 3024 c0 -299 5 -336 50 -379 71 -68 211 -47 257 38 16 28 18
67 21 325 l4 292 -56 0 -56 0 0 -276 c0 -171 -4 -283 -10 -295 -13 -23 -62
-26 -84 -3 -14 13 -16 54 -16 295 l0 279 -55 0 -55 0 0 -276z"/>
<path d="M5080 2955 l0 -345 50 0 50 0 1 248 0 247 67 -247 66 -248 58 0 58 0
0 345 0 345 -50 0 -50 0 0 -197 c0 -108 -2 -194 -5 -192 -3 4 -54 188 -96 352
l-10 37 -69 0 -70 0 0 -345z"/>
<path d="M5912 2958 l3 -343 143 -3 142 -3 0 50 0 50 -87 3 -88 3 -3 293 -2
292 -55 0 -55 0 2 -342z"/>
<path d="M6260 2955 l0 -345 150 0 150 0 0 50 0 50 -95 0 -95 0 0 100 0 100
75 0 75 0 0 50 0 50 -75 0 -75 0 0 95 0 94 93 3 92 3 3 48 3 47 -150 0 -151 0
0 -345z"/>
<path d="M2737 2084 c-4 -4 -7 -81 -7 -171 l0 -163 30 0 30 0 -2 168 c-3 159
-4 167 -23 170 -12 2 -24 0 -28 -4z"/>
<path d="M3495 2081 c-25 -11 -51 -40 -59 -67 -10 -32 7 -66 58 -118 25 -25
46 -52 46 -59 0 -32 -53 -50 -76 -27 -14 14 -37 -13 -32 -37 4 -25 90 -31 124
-9 61 40 53 106 -21 175 -57 54 -59 86 -5 86 30 0 35 4 38 26 2 20 -2 28 -20
33 -27 7 -28 7 -53 -3z"/>
<path d="M4583 2083 c-23 -4 -23 -6 -23 -170 l0 -166 55 6 c71 7 105 24 129
67 40 67 19 208 -36 244 -25 17 -91 27 -125 19z m92 -78 c51 -50 24 -195 -36
-195 -18 0 -19 8 -19 110 0 122 8 133 55 85z"/>
<path d="M4877 2084 c-4 -4 -7 -81 -7 -171 l0 -163 30 0 30 0 -2 168 c-3 159
-4 167 -23 170 -12 2 -24 0 -28 -4z"/>
<path d="M2890 1915 l0 -165 70 0 70 0 0 30 c0 28 -2 30 -40 30 l-40 0 0 135
0 135 -30 0 -30 0 0 -165z"/>
<path d="M3132 1945 c4 -116 8 -140 25 -163 23 -31 78 -41 124 -22 39 17 49
58 49 203 l0 117 -30 0 -30 0 0 -110 c0 -121 -12 -163 -44 -158 -29 4 -37 53
-30 171 l7 97 -38 0 -38 0 5 -135z"/>
<path d="M3700 2055 c0 -20 5 -25 25 -25 l24 0 3 -137 3 -138 28 -3 27 -3 0
140 0 141 30 0 c25 0 30 4 30 25 0 25 -1 25 -85 25 -84 0 -85 0 -85 -25z"/>
<path d="M3972 1941 c3 -132 4 -141 27 -165 34 -36 101 -37 136 -1 24 23 25
29 25 165 l0 140 -29 0 -29 0 1 -120 c2 -102 -1 -122 -16 -137 -13 -14 -21
-15 -35 -7 -14 9 -17 30 -20 138 l-3 126 -30 0 -31 0 4 -139z"/>
<path d="M4272 1934 c3 -139 4 -147 27 -165 26 -21 77 -25 115 -8 37 17 46 57
46 195 l0 124 -30 0 -30 0 0 -109 c0 -128 -10 -164 -43 -159 -21 3 -22 7 -25
136 l-3 132 -30 0 -30 0 3 -146z"/>
<path d="M5093 2060 c-45 -27 -57 -55 -57 -135 -1 -108 43 -174 115 -175 99 0
154 113 119 242 -22 78 -107 111 -177 68z m118 -67 c16 -30 16 -121 0 -151
-17 -32 -45 -44 -76 -32 -34 13 -48 52 -43 124 4 49 9 63 31 82 23 20 31 22
51 13 13 -6 30 -22 37 -36z"/>
</g>
</svg>
