<svg xmlns="http://www.w3.org/2000/svg" viewBox="0 0 684 674">
<path fill="#6F8F72" d="M4331 5505 c-39 -40 -119 -81 -176 -90 -87 -13 -356 -44 -458 -52
-42 -3 -80 -10 -83 -14 -3 -5 -20 -9 -39 -9 -19 0 -37 -4 -40 -10 -3 -5 -16
-10 -28 -10 -24 0 -91 -50 -131 -97 -32 -38 -72 -123 -85 -183 -5 -24 -8 -112
-6 -195 3 -123 10 -181 39 -324 20 -96 36 -198 36 -228 0 -50 -1 -53 -26 -53
-49 0 -174 143 -174 200 0 11 -4 22 -10 25 -5 3 -10 21 -10 40 0 19 -4 37 -10
40 -15 9 -12 257 5 360 8 50 23 123 33 163 10 40 15 71 11 70 -4 -2 -51 -50
-105 -108 -53 -58 -165 -175 -248 -260 -84 -85 -157 -166 -163 -180 -19 -41
-33 -102 -25 -114 12 -19 10 -66 -3 -66 -6 0 -12 13 -12 30 0 65 -22 54 -113
-55 -93 -112 -140 -173 -140 -184 0 -4 -9 -16 -20 -26 -11 -10 -20 -23 -20
-30 0 -7 -9 -20 -20 -30 -11 -10 -20 -24 -20 -30 0 -7 -7 -18 -15 -25 -34 -28
-65 -113 -65 -176 0 -35 5 -66 10 -69 6 -3 10 -15 10 -26 0 -55 154 -230 380
-429 115 -102 145 -140 138 -176 -5 -27 -34 -41 -58 -26 -11 6 -26 12 -34 12
-15 0 -127 57 -136 69 -3 4 -21 18 -40 31 -19 12 -80 69 -135 125 -122 124
-174 214 -183 313 -2 34 -6 61 -8 59 -7 -7 -62 -231 -90 -367 -57 -277 -26
-572 81 -755 32 -55 155 -182 198 -204 15 -8 27 -18 27 -23 0 -4 9 -8 20 -8
11 0 20 -4 20 -10 0 -5 10 -10 23 -10 13 0 28 -5 34 -11 6 -6 57 -11 122 -11
126 -1 184 12 294 69 38 19 71 32 73 30 3 -2 -7 -18 -21 -35 -14 -16 -25 -34
-25 -39 0 -5 -13 -22 -30 -38 -16 -16 -30 -34 -30 -40 0 -6 -13 -24 -30 -40
-16 -16 -30 -34 -30 -40 0 -6 -13 -24 -30 -40 -16 -16 -30 -34 -30 -40 0 -6
-13 -24 -30 -40 -16 -16 -30 -32 -30 -36 0 -11 -1030 -1383 -1041 -1387 -5 -2
-9 -10 -9 -18 0 -11 18 -14 83 -14 96 0 91 -3 170 107 173 239 217 300 260
358 26 35 47 67 47 70 0 3 22 35 50 70 27 35 50 67 50 70 0 3 23 35 50 70 27
35 50 67 50 70 0 3 22 35 50 70 28 35 50 67 50 70 0 3 23 35 50 70 28 35 50
67 50 70 0 3 23 35 50 70 28 35 50 67 50 70 0 3 23 35 50 70 28 35 50 69 50
75 0 5 4 10 8 10 4 0 15 12 24 28 9 15 28 41 42 57 14 17 26 33 26 38 0 4 14
21 30 39 17 17 30 37 30 44 0 8 4 14 8 14 4 0 16 13 25 30 10 16 24 36 32 43
8 8 23 30 33 48 34 61 46 45 53 -66 8 -123 12 -140 61 -242 51 -105 121 -177
220 -226 40 -20 76 -37 80 -37 4 -1 22 -6 40 -11 48 -15 160 -29 238 -29 76 0
208 11 242 21 2 0 23 5 48 10 25 5 56 12 70 15 126 27 282 117 381 221 54 55
139 172 139 190 0 15 103 118 164 164 120 89 192 173 251 293 65 133 95 208
95 235 0 11 4 22 8 25 5 3 14 35 22 71 8 36 17 68 22 71 4 3 8 15 8 27 0 19
-6 15 -40 -25 -44 -51 -144 -130 -193 -152 -138 -63 -319 -90 -537 -82 -79 4
-149 11 -154 16 -6 6 -20 10 -32 10 -13 0 -26 5 -29 10 -3 6 -15 10 -26 10
-10 0 -19 5 -19 10 0 6 -6 10 -14 10 -7 0 -21 12 -31 26 -16 24 -16 27 1 45 9
10 27 19 39 19 11 0 25 4 30 9 6 5 37 12 70 15 64 6 160 19 265 36 36 6 85 13
110 16 25 3 49 10 55 15 5 5 24 9 41 9 18 0 36 5 39 10 3 6 21 10 40 10 19 0
37 5 40 10 3 6 17 10 30 10 13 0 27 5 30 10 3 6 15 10 26 10 10 0 27 4 37 9 9
5 40 19 67 32 60 28 134 80 135 95 0 6 9 19 20 29 11 10 20 28 20 40 0 11 6
27 13 33 22 23 15 354 -12 497 -12 66 -26 135 -32 152 -6 18 -7 38 -3 44 4 7
1 10 -7 7 -8 -3 -16 -13 -18 -23 -2 -10 -8 -24 -15 -31 -6 -7 -27 -35 -46 -61
-56 -76 -242 -256 -298 -287 -9 -5 -27 -20 -40 -33 -12 -13 -27 -23 -32 -23
-5 0 -15 -6 -23 -14 -23 -23 -175 -96 -200 -96 -13 0 -27 -4 -32 -9 -6 -5 -51
-11 -102 -15 -85 -6 -92 -5 -106 14 -13 19 -13 25 0 50 19 39 57 68 107 81
160 42 454 168 531 227 13 9 33 24 45 32 72 48 133 121 157 190 29 82 2 311
-68 573 -10 36 -29 51 -29 22 0 -8 -3 -15 -7 -15 -5 0 -19 -17 -33 -38 -13
-20 -36 -51 -50 -68 -14 -18 -35 -45 -47 -60 -32 -42 -171 -185 -218 -223 -53
-44 -152 -91 -192 -91 -37 0 -65 23 -56 48 10 27 33 51 118 118 230 181 337
280 367 338 l20 39 -34 65 c-23 47 -55 87 -108 137 -158 149 -229 223 -278
292 -34 48 -82 143 -82 162 0 9 -4 21 -9 27 -6 5 -11 28 -13 51 l-3 43 -34
-35z m-427 -219 c3 -14 -4 -43 -20 -76 -25 -53 -26 -57 -23 -238 l4 -184 -28
-15 c-36 -18 -51 -13 -71 28 -18 37 -23 213 -6 224 6 3 10 21 10 40 0 19 5 37
10 40 6 3 10 14 10 24 0 20 40 103 62 129 8 9 18 25 21 35 9 24 24 21 31 -7z
m589 -302 c27 -36 12 -68 -77 -172 -26 -30 -136 -112 -150 -112 -15 0 -56 46
-56 63 0 33 43 87 100 127 55 39 72 53 104 88 35 38 55 40 79 6z m-1803 -689
c0 -15 51 -114 80 -155 11 -15 20 -31 20 -34 0 -4 27 -47 60 -96 33 -48 69
-105 80 -124 11 -20 29 -52 40 -71 12 -21 20 -54 20 -79 0 -39 -3 -45 -25 -50
-61 -15 -165 76 -165 145 0 10 -4 21 -10 24 -5 3 -10 17 -10 30 0 13 -4 27
-10 30 -5 3 -10 17 -10 30 0 13 -4 27 -10 30 -5 3 -10 17 -10 30 0 13 -4 27
-10 30 -5 3 -10 21 -10 40 0 19 -4 37 -10 40 -5 3 -10 21 -10 40 0 19 -4 37
-10 40 -5 3 -10 22 -10 41 0 19 -4 34 -10 34 -11 0 -14 33 -4 43 9 9 24 -2 24
-18z m1503 -156 c12 -20 4 -30 -65 -77 -53 -36 -54 -37 -91 -19 -49 22 -46 61
9 98 37 25 131 23 147 -2z m-713 -115 c53 -50 61 -74 34 -112 -32 -45 -74 -17
-112 75 -39 93 -1 111 78 37z m-266 -555 c74 -69 77 -73 74 -113 -2 -33 -7
-42 -25 -44 -27 -4 -89 56 -120 117 -22 42 -31 111 -15 111 5 0 43 -32 86 -71z
m702 62 c5 -5 20 -11 34 -13 17 -2 26 -10 28 -26 7 -47 -53 -82 -138 -82 -49
0 -61 4 -84 26 -34 35 -33 47 7 78 25 21 43 26 88 26 30 0 59 -4 65 -9z m-188
-483 c43 -27 41 -51 -7 -73 -61 -27 -168 -4 -185 40 -2 7 7 25 22 40 24 25 31
26 82 20 30 -4 70 -16 88 -27z m-1198 -198 c56 -13 130 -49 130 -65 0 -27 -26
-35 -116 -35 l-92 0 -31 35 c-30 35 -38 55 -24 68 9 10 81 8 133 -3z m1445
-350 c3 -5 15 -10 25 -10 11 0 35 -9 55 -20 20 -11 42 -20 50 -20 8 0 30 -9
50 -20 20 -11 44 -20 55 -20 10 0 22 -4 25 -10 3 -5 16 -10 29 -10 12 0 26 -4
32 -8 12 -12 108 -32 163 -35 55 -3 62 -19 22 -56 -22 -21 -45 -30 -84 -35
-94 -12 -306 31 -422 84 -53 25 -125 93 -125 118 0 32 108 69 125 42z m-414
-242 c23 -29 64 -75 90 -103 63 -66 94 -122 78 -141 -15 -19 -20 -18 -81 10
-69 32 -87 48 -136 124 -46 72 -58 112 -42 141 18 34 45 24 91 -31z" transform="translate(0,674) scale(0.1,-0.1)"/>
</svg>
